<svg width="41" height="40" viewBox="0 0 41 40" fill="none" xmlns="http://www.w3.org/2000/svg">
<circle cx="20.5" cy="20" r="20" fill="url(#paint0_linear_2229_1090)"/>
<path d="M18.2621 19.9692C18.8305 21.8564 22.4229 27.3292 26.7882 28.4615M25.083 30.5846C21.6726 29.5231 18.2246 26.9122 16.2158 22.4461C13.8285 17.1385 19.2852 15.0153 21.3315 19.6154C22.1185 21.3846 23.3778 23.3307 27.1293 25.2769C30.8808 27.223 33.2681 21.3847 29.8577 19.6154C24.8919 17.0394 23.7188 9.63693 16.5569 11.1231C6.49636 13.2108 8.71284 27.0462 13.8285 30.9385M28.8345 22.4461C22.6957 20.323 22.8443 11.4942 16.2158 14.3076C8.71281 17.4922 14.1696 30.2308 20.9905 32M22.0136 9C25.7651 9.35385 26.7883 13.2462 30.8808 16.7846" stroke="#E9F6FE" stroke-linecap="round" stroke-linejoin="round"/>
<defs>
<linearGradient id="paint0_linear_2229_1090" x1="20.5" y1="0" x2="20.5" y2="40" gradientUnits="userSpaceOnUse">
<stop stop-color="#33E4DB"/>
<stop offset="1" stop-color="#00BBD3"/>
</linearGradient>
</defs>
</svg>
