<svg width="57" height="40" viewBox="0 0 57 40" fill="none" xmlns="http://www.w3.org/2000/svg">
<path d="M38.1266 21.6785C38.128 23.8742 37.6974 26.0487 36.8596 28.0783M38.1266 21.6785C38.1314 19.4807 37.7036 17.3033 36.8678 15.2706M38.1266 21.6785C38.1264 19.4648 37.6874 17.2732 36.8352 15.2301C35.9866 13.1821 34.7418 11.3217 33.1724 9.75604C32.8394 9.43118 32.4985 9.1145 32.133 8.80588C32.133 8.80588 35.0972 8.09925 36.2424 0.936035M36.8596 28.0783C35.9455 27.2815 35.213 26.298 34.7115 25.1939C34.2099 24.0899 33.9511 22.8911 33.9522 21.6785C33.9493 20.4637 34.2081 19.2625 34.7113 18.1567C35.2144 17.0509 35.9499 16.0665 36.8678 15.2706M36.8596 28.0783C36.0147 30.124 34.7726 31.9817 33.2049 33.5441M36.8678 15.2706C36.0191 13.2226 34.7744 11.3624 33.2049 9.79669C31.6432 11.3556 30.4052 13.2079 29.5619 15.247C28.7187 17.2862 28.2868 19.4719 28.2914 21.6785C28.288 23.8826 28.7205 26.0655 29.5637 28.1018C30.407 30.1382 31.6444 31.9877 33.2049 33.5441M33.2049 33.5441C31.6487 35.1054 29.7993 36.3439 27.7631 37.1885C25.7269 38.0331 23.5439 38.4672 21.3394 38.4658C16.8864 38.4658 12.6155 36.6974 9.466 33.5494C6.31649 30.4014 4.54605 26.1315 4.54389 21.6785C4.54389 21.2291 4.56018 20.7906 4.59267 20.3628M32.4659 8.66779L1.42529 21.6298L36.2424 35.5258C35.8475 36.8434 35.2324 38.0845 34.4231 39.1967M56.3189 21.6298H53.8824M51.3729 21.6298H46.7598M44.2828 21.6298H41.8463M55.3849 38.3927L53.7769 37.1501M50.9668 35.0466L45.6878 30.9858M43.2513 28.9798L41.6514 27.7372M41.6514 15.5305L43.2513 14.2879M45.6878 12.3062L50.5607 8.66779M53.7769 6.11762L55.3849 4.87502M4.56015 20.3222C4.90293 16.1168 6.81611 12.1945 9.91907 9.33531C13.022 6.47613 17.0875 4.88955 21.3069 4.89125C25.2703 4.88505 29.1071 6.28676 32.133 8.84645M24.32 11.9327C24.32 11.9327 27.1219 9.49622 28.7462 2.82029" stroke="white" stroke-width="1.37234" stroke-linecap="round" stroke-linejoin="round"/>
</svg>
