<svg width="57" height="56" viewBox="0 0 57 56" fill="none" xmlns="http://www.w3.org/2000/svg">
<path d="M51.9835 13.5329C49.3053 14.83 42.8013 18.4506 39.8526 18.8892C36.6985 19.3651 33.6377 17.816 30.437 18.6652C29.6167 18.8458 28.8507 19.2182 28.2019 19.7518C27.5531 20.2855 27.04 20.9652 26.7045 21.7353C26.4046 22.5163 26.4034 23.3805 26.7013 24.1622C26.9992 24.944 27.5752 25.5884 28.3188 25.9718C30.9783 27.0729 30.4837 27.4088 30.2411 30.3576C30.1291 31.7199 30.381 33.2783 31.5101 34.0901C36.3718 37.3841 40.5149 27.2035 42.7078 25.0666C47.1216 20.8208 49.4173 19.6824 56.192 18.1613M2.04148 35.3592C5.47546 34.678 8.85348 33.4929 11.1677 31.6266C13.6312 29.6017 14.5362 26.2984 17.3076 24.4974C17.9906 24.0122 18.7788 23.6958 19.6077 23.5742C20.4366 23.4525 21.2825 23.5291 22.0761 23.7975C22.8554 24.0983 23.4963 24.6757 23.8768 25.4194C24.2572 26.163 24.3504 27.0208 24.1383 27.8287C23.2052 30.5442 23.7556 30.4042 26.1071 32.1959C27.1896 33.0264 28.1787 34.2581 27.9734 35.6112C27.4135 39.5957 22.132 38.4106 19.4632 37.8601C16.7173 37.1568 13.8505 37.0644 11.0649 37.5895C8.16285 38.28 5.46614 40.0716 2.98397 41.6113M49.4545 11.8533C49.0533 9.6417 48.6802 8.30731 48.6802 8.30731C48.6802 8.30731 31.9862 12.5531 25.8368 0.702148C19.6873 12.5531 3.00271 8.30731 3.00271 8.30731C3.00271 8.30731 -0.188782 19.505 2.16275 31.0387M7.11774 42.8897C10.8503 48.0966 16.6825 52.4078 25.8367 54.4234C45.6287 50.0562 50.0985 35.0046 50.3598 23.2749M31.1463 22.3792C31.1463 22.3792 30.4837 26.8209 30.2131 30.3576M23.9984 28.2486C23.9984 28.2486 23.4664 29.723 21.9453 34.4354" stroke="white" stroke-width="1.37234" stroke-linecap="round" stroke-linejoin="round"/>
</svg>
