<svg width="42" height="41" viewBox="0 0 42 41" fill="none" xmlns="http://www.w3.org/2000/svg">
<path d="M37.9333 10.3495C35.9818 11.2947 31.2425 13.933 29.0938 14.2525C26.7955 14.5993 24.5651 13.4706 22.2329 14.0894C21.635 14.221 21.0769 14.4923 20.6042 14.8812C20.1314 15.27 19.7575 15.7653 19.513 16.3265C19.2945 16.8956 19.2936 17.5253 19.5107 18.095C19.7277 18.6646 20.1475 19.1341 20.6893 19.4135C22.6272 20.2159 22.2669 20.4607 22.0901 22.6094C22.0085 23.6021 22.192 24.7377 23.0147 25.3292C26.5574 27.7295 29.5764 20.311 31.1743 18.7539C34.3906 15.6601 36.0634 14.8305 41 13.7222M1.54152 26.254C4.04379 25.7576 6.50529 24.8941 8.19161 23.5341C9.98672 22.0586 10.6462 19.6515 12.6657 18.3392C13.1633 17.9856 13.7377 17.7551 14.3417 17.6664C14.9457 17.5778 15.5621 17.6336 16.1404 17.8292C16.7082 18.0484 17.1753 18.4691 17.4525 19.011C17.7297 19.5529 17.7976 20.1779 17.6431 20.7667C16.9631 22.7454 17.3642 22.6434 19.0777 23.9489C19.8665 24.5541 20.5872 25.4516 20.4377 26.4376C20.0297 29.3411 16.1811 28.4775 14.2364 28.0763C12.2355 27.5638 10.1465 27.4966 8.11674 27.8791C6.00204 28.3823 4.037 29.6878 2.22829 30.8098M36.0905 9.12561C35.7982 7.51409 35.5263 6.54175 35.5263 6.54175C35.5263 6.54175 23.3617 9.63558 18.8807 1C14.3997 9.63558 2.24195 6.54175 2.24195 6.54175C2.24195 6.54175 -0.0836392 14.7013 1.62988 23.1057M5.2405 31.7413C7.96036 35.5355 12.2102 38.677 18.8807 40.1457C33.3028 36.9634 36.5598 25.9956 36.7502 17.4484M22.7496 16.7957C22.7496 16.7957 22.2669 20.0323 22.0697 22.6094M17.5412 21.0726C17.5412 21.0726 17.1534 22.147 16.0451 25.5808" stroke="white" stroke-linecap="round" stroke-linejoin="round"/>
</svg>
