<svg width="15" height="23.5" viewBox="0 0 15 22" fill="none" xmlns="http://www.w3.org/2000/svg">
<path d="M3.16958 5.01609C3.44573 5.01609 3.66958 4.79223 3.66958 4.51609C3.66958 4.23994 3.44573 4.01609 3.16958 4.01609V5.01609ZM11.9892 5.38924V5.88924C12.2654 5.88924 12.4892 5.66538 12.4892 5.38924H11.9892ZM8.99056 3.05792L8.52994 2.86343C8.46475 3.01783 8.48125 3.19462 8.57388 3.33428C8.66652 3.47395 8.82297 3.55792 8.99056 3.55792V3.05792ZM9.1082 2.46994H8.6082L8.60821 2.4723L9.1082 2.46994ZM6.16832 2.46994L6.66832 2.47585V2.46994H6.16832ZM6.28589 3.05792V3.55792C6.45411 3.55792 6.61106 3.47332 6.70355 3.3328C6.79603 3.19228 6.81165 3.01467 6.74512 2.86016L6.28589 3.05792ZM3.19901 5.38924H2.69901C2.69901 5.66538 2.92287 5.88924 3.19901 5.88924V5.38924ZM8.06474 7.6794C8.06474 7.40326 7.84088 7.1794 7.56474 7.1794C7.28859 7.1794 7.06474 7.40326 7.06474 7.6794H8.06474ZM7.06474 11.0955C7.06474 11.3717 7.28859 11.5955 7.56474 11.5955C7.84088 11.5955 8.06474 11.3717 8.06474 11.0955H7.06474ZM9.27281 9.88747C9.54895 9.88747 9.77281 9.66361 9.77281 9.38747C9.77281 9.11133 9.54895 8.88747 9.27281 8.88747V9.88747ZM5.85666 8.88747C5.58052 8.88747 5.35666 9.11133 5.35666 9.38747C5.35666 9.66361 5.58052 9.88747 5.85666 9.88747V8.88747ZM3.34013 12.8563C3.06398 12.8563 2.84013 13.0802 2.84013 13.3563C2.84013 13.6325 3.06398 13.8563 3.34013 13.8563V12.8563ZM11.8393 13.8563C12.1155 13.8563 12.3393 13.6325 12.3393 13.3563C12.3393 13.0802 12.1155 12.8563 11.8393 12.8563V13.8563ZM3.34013 15.2641C3.06398 15.2641 2.84013 15.4879 2.84013 15.7641C2.84013 16.0402 3.06398 16.2641 3.34013 16.2641V15.2641ZM11.8393 16.2641C12.1155 16.2641 12.3393 16.0402 12.3393 15.7641C12.3393 15.4879 12.1155 15.2641 11.8393 15.2641V16.2641ZM3.34013 17.7012C3.06398 17.7012 2.84013 17.9251 2.84013 18.2012C2.84013 18.4774 3.06398 18.7012 3.34013 18.7012V17.7012ZM11.8393 18.7012C12.1155 18.7012 12.3393 18.4774 12.3393 18.2012C12.3393 17.9251 12.1155 17.7012 11.8393 17.7012V18.7012ZM11.9892 5.01609H12.5772V4.01609H11.9892V5.01609ZM12.5772 5.01609C13.1318 5.01609 13.6589 5.52598 13.6589 6.28001H14.6589C14.6589 5.08197 13.7865 4.01609 12.5772 4.01609V5.01609ZM13.6589 6.28001V19.2361H14.6589V6.28001H13.6589ZM13.6589 19.2361C13.6589 19.9835 13.1237 20.5 12.5772 20.5V21.5C13.777 21.5 14.6589 20.429 14.6589 19.2361H13.6589ZM12.5772 20.5H2.58161V21.5H12.5772V20.5ZM2.58161 20.5C2.02865 20.5 1.50293 19.989 1.50293 19.2361H0.50293C0.50293 20.4293 1.37064 21.5 2.58161 21.5V20.5ZM1.50293 19.2361V6.28001H0.50293V19.2361H1.50293ZM1.50293 6.28001C1.50293 5.52959 2.03814 5.01609 2.58161 5.01609V4.01609C1.38467 4.01609 0.50293 5.08424 0.50293 6.28001H1.50293ZM2.58161 5.01609H3.16958V4.01609H2.58161V5.01609ZM12.4892 5.38924V4.51609H11.4892V5.38924H12.4892ZM12.4892 4.51609V3.72526H11.4892V4.51609H12.4892ZM12.4892 3.72526C12.4892 3.41569 12.3663 3.11877 12.1473 2.89982L11.4402 3.60693C11.4716 3.63829 11.4892 3.68084 11.4892 3.72526H12.4892ZM12.1473 2.89982C11.9284 2.68088 11.6314 2.55792 11.3219 2.55792V3.55792C11.3663 3.55792 11.4089 3.57556 11.4402 3.60693L12.1473 2.89982ZM11.3219 2.55792H8.99056V3.55792H11.3219V2.55792ZM9.45119 3.2524C9.556 3.00416 9.60947 2.73718 9.6082 2.46758L8.60821 2.4723C8.60884 2.60656 8.58222 2.73962 8.52994 2.86343L9.45119 3.2524ZM9.6082 2.46994C9.6082 1.94744 9.40059 1.4464 9.03118 1.07699L8.32407 1.78409C8.506 1.96602 8.6082 2.21273 8.6082 2.46994H9.6082ZM9.03118 1.07699C8.66176 0.707562 8.16074 0.5 7.63826 0.5V1.5C7.89549 1.5 8.14216 1.60218 8.32407 1.78409L9.03118 1.07699ZM7.63826 0.5C7.11581 0.5 6.61471 0.707544 6.24527 1.07699L6.95238 1.78409C7.13427 1.6022 7.38101 1.5 7.63826 1.5V0.5ZM6.24527 1.07699C5.87582 1.44644 5.66832 1.94751 5.66832 2.46994H6.66832C6.66832 2.21267 6.7705 1.96597 6.95238 1.78409L6.24527 1.07699ZM5.66836 2.46403C5.66514 2.73603 5.71903 3.00574 5.82666 3.25567L6.74512 2.86016C6.6929 2.7389 6.66672 2.60797 6.66829 2.47585L5.66836 2.46403ZM6.28589 2.55792H3.86637V3.55792H6.28589V2.55792ZM3.86637 2.55792C3.5568 2.55792 3.25984 2.68088 3.0409 2.89982L3.74801 3.60693C3.77937 3.57556 3.82196 3.55792 3.86637 3.55792V2.55792ZM3.0409 2.89982C2.82196 3.11877 2.69901 3.41569 2.69901 3.72526H3.69901C3.69901 3.68084 3.71665 3.63829 3.74801 3.60693L3.0409 2.89982ZM2.69901 3.72526V5.38924H3.69901V3.72526H2.69901ZM3.19901 5.88924H11.9892V4.88924H3.19901V5.88924ZM7.06474 7.6794V9.38747H8.06474V7.6794H7.06474ZM7.06474 9.38747V11.0955H8.06474V9.38747H7.06474ZM9.27281 8.88747H7.56474V9.88747H9.27281V8.88747ZM7.56474 8.88747H5.85666V9.88747H7.56474V8.88747ZM7.5116 2.4229C7.5116 2.34971 7.57093 2.29038 7.64411 2.29038V3.29038C8.12321 3.29038 8.5116 2.902 8.5116 2.4229H7.5116ZM7.64411 2.29038C7.7173 2.29038 7.77663 2.34971 7.77663 2.4229H6.77663C6.77663 2.902 7.16501 3.29038 7.64411 3.29038V2.29038ZM7.77663 2.4229C7.77663 2.49608 7.7173 2.55541 7.64411 2.55541V1.55541C7.16501 1.55541 6.77663 1.9438 6.77663 2.4229H7.77663ZM7.64411 2.55541C7.57093 2.55541 7.5116 2.49608 7.5116 2.4229H8.5116C8.5116 1.9438 8.12321 1.55541 7.64411 1.55541V2.55541ZM3.34013 13.8563H11.8393V12.8563H3.34013V13.8563ZM3.34013 16.2641H11.8393V15.2641H3.34013V16.2641ZM3.34013 18.7012H11.8393V17.7012H3.34013V18.7012Z" fill="url(#paint0_linear_2081_1498)"/>
<defs>
<linearGradient id="paint0_linear_2081_1498" x1="7.58091" y1="1" x2="7.58091" y2="21" gradientUnits="userSpaceOnUse">
<stop stop-color="#33E4DB"/>
<stop offset="1" stop-color="#00BBD3"/>
</linearGradient>
</defs>
</svg>
